<svg width="144" height="144" viewBox="0 0 144 144" fill="none" xmlns="http://www.w3.org/2000/svg">
<path d="M67.6366 129.684L66.0596 140.07L62.6247 139.549C61.9076 139.44 61.2556 139.202 60.6688 138.834C60.0812 138.472 59.5865 138.015 59.1845 137.463C58.7818 136.916 58.4946 136.308 58.3229 135.64C58.1455 134.975 58.1112 134.284 58.2201 133.567C58.329 132.85 58.5671 132.198 58.9345 131.611C59.2962 131.029 59.7509 130.533 60.2985 130.126C60.8454 129.723 61.4536 129.433 62.123 129.257C62.7917 129.085 63.4846 129.054 64.2017 129.163L67.6366 129.684ZM65.8592 130.993L63.9674 130.706C63.463 130.629 62.9788 130.652 62.5151 130.774C62.0464 130.895 61.6183 131.098 61.2309 131.383C60.8386 131.668 60.515 132.016 60.2603 132.427C60.0055 132.839 59.8398 133.297 59.7632 133.802C59.6866 134.306 59.7089 134.793 59.83 135.261C59.9511 135.73 60.1567 136.158 60.4469 136.547C60.7322 136.934 61.0806 137.255 61.4923 137.51C61.899 137.764 62.3546 137.929 62.859 138.006L64.7508 138.293L65.8592 130.993Z" fill="white"/>
<path d="M50.6915 133.649L49.2209 133.126L51.7346 126.055L53.2052 126.578L50.6915 133.649ZM49.5776 134.407C49.8038 134.488 49.9664 134.628 50.0653 134.828C50.1641 135.027 50.1742 135.238 50.0954 135.459C50.0183 135.676 49.8784 135.831 49.6756 135.923C49.4712 136.021 49.2582 136.03 49.0366 135.951C48.8198 135.874 48.6628 135.733 48.5656 135.529C48.4667 135.329 48.4558 135.121 48.5329 134.904C48.6117 134.682 48.7524 134.525 48.9552 134.433C49.1533 134.339 49.3607 134.33 49.5776 134.407Z" fill="white"/>
<path d="M44.5095 122.626C44.8449 122.837 45.1453 123.091 45.4107 123.388C45.676 123.686 45.8791 124.004 46.02 124.342C46.1541 124.682 46.2076 125.024 46.1804 125.368L44.741 125.236C44.7482 125.086 44.7125 124.916 44.6339 124.725C44.5508 124.532 44.4328 124.346 44.2799 124.166C44.1246 123.991 43.9414 123.846 43.7304 123.731C43.5237 123.619 43.3169 123.544 43.1101 123.506C42.8964 123.47 42.699 123.482 42.5178 123.543C42.3367 123.604 42.1996 123.72 42.1066 123.892C42.0016 124.085 41.9865 124.271 42.0611 124.448C42.129 124.627 42.2441 124.798 42.4066 124.96C42.569 125.122 42.7327 125.282 42.8975 125.44C43.2759 125.77 43.6001 126.117 43.87 126.479C44.1331 126.844 44.2986 127.216 44.3665 127.594C44.432 127.977 44.3598 128.362 44.1498 128.749C43.9208 129.171 43.6085 129.474 43.2128 129.657C42.8148 129.845 42.3858 129.923 41.9257 129.889C41.4613 129.854 41.0181 129.721 40.596 129.492C40.0683 129.206 39.6455 128.831 39.3275 128.369C39.0095 127.906 38.8401 127.416 38.8194 126.898L40.2584 126.842C40.2528 127.01 40.2873 127.182 40.3619 127.359C40.4366 127.536 40.5407 127.701 40.6744 127.853C40.8057 128.01 40.9591 128.141 41.1346 128.248C41.3541 128.378 41.5773 128.465 41.8041 128.509C42.0242 128.554 42.226 128.544 42.4095 128.479C42.593 128.413 42.7385 128.281 42.8458 128.084C42.9508 127.89 42.9614 127.708 42.8776 127.537C42.7914 127.371 42.6604 127.203 42.4848 127.034C42.3048 126.862 42.1239 126.682 41.9422 126.492C41.6177 126.157 41.3329 125.806 41.0877 125.439C40.8402 125.077 40.6813 124.709 40.611 124.335C40.5407 123.961 40.6114 123.59 40.8229 123.221C41.0472 122.808 41.3693 122.513 41.7894 122.337C42.205 122.158 42.6548 122.095 43.1388 122.147C43.6228 122.199 44.0797 122.359 44.5095 122.626Z" fill="white"/>
<path d="M32.2078 116.841L31.6214 115.365C32.187 115.218 32.7628 115.204 33.3488 115.321C33.931 115.435 34.4565 115.688 34.9252 116.079C35.4553 116.521 35.8257 117.061 36.0361 117.699C36.2428 118.334 36.2861 118.989 36.166 119.664C36.0389 120.339 35.7431 120.956 35.2785 121.513C34.9261 121.935 34.5228 122.267 34.0685 122.507C33.6111 122.751 33.1364 122.902 32.6445 122.961C32.1455 123.02 31.6556 122.983 31.1746 122.849C30.6936 122.715 30.2553 122.483 29.8596 122.153C29.3909 121.762 29.0481 121.29 28.8311 120.738C28.6104 120.183 28.5232 119.611 28.5695 119.025L30.1268 119.337C30.128 119.663 30.1944 119.966 30.3263 120.246C30.4549 120.529 30.6326 120.765 30.8592 120.954C31.1743 121.217 31.5326 121.369 31.9341 121.411C32.3287 121.453 32.7178 121.397 33.1015 121.241C33.4782 121.086 33.8043 120.844 34.0799 120.513C34.3522 120.187 34.5304 119.821 34.6145 119.415C34.6954 119.014 34.6795 118.623 34.5669 118.242C34.4505 117.858 34.2367 117.537 33.9255 117.277C33.6873 117.079 33.4158 116.943 33.1109 116.872C32.8061 116.8 32.505 116.79 32.2078 116.841Z" fill="white"/>
<path d="M26.448 107.323C26.8693 107.87 27.1134 108.478 27.1801 109.146C27.2437 109.811 27.1436 110.459 26.8796 111.092C26.6087 111.724 26.1859 112.261 25.6113 112.704C25.1754 113.04 24.7097 113.276 24.2141 113.411C23.7146 113.55 23.2184 113.594 22.7255 113.545C22.2255 113.494 21.7554 113.351 21.3151 113.116C20.8748 112.88 20.4974 112.558 20.1829 112.15C19.7616 111.603 19.5191 110.998 19.4554 110.333C19.3887 109.665 19.4908 109.014 19.7618 108.382C20.0297 107.747 20.4529 107.206 21.0315 106.76C21.4634 106.427 21.9272 106.193 22.4227 106.058C22.9182 105.922 23.416 105.88 23.9159 105.93C24.4089 105.98 24.8755 106.122 25.3158 106.358C25.7531 106.589 26.1305 106.911 26.448 107.323ZM25.2116 108.276C24.9582 107.947 24.6436 107.719 24.2677 107.592C23.8918 107.464 23.5032 107.435 23.1019 107.505C22.6935 107.573 22.3209 107.737 21.9841 107.996C21.6393 108.262 21.3834 108.586 21.2162 108.967C21.046 109.344 20.9765 109.73 21.0076 110.122C21.0347 110.518 21.172 110.877 21.4193 111.198C21.6696 111.523 21.9843 111.751 22.3632 111.882C22.7391 112.009 23.1312 112.038 23.5395 111.97C23.9448 111.898 24.3179 111.73 24.6587 111.468C25.0114 111.196 25.2693 110.871 25.4325 110.493C25.5957 110.114 25.6617 109.729 25.6306 109.336C25.5925 108.942 25.4528 108.589 25.2116 108.276Z" fill="white"/>
<path d="M19.0516 95.4114L19.9 97.2264L14.2485 102.892L13.5431 101.383L17.8459 97.0849L11.7858 97.6234L11.0835 96.1211L19.0516 95.4114Z" fill="white"/>
<path d="M15.6894 84.7003C15.8388 85.3743 15.8018 86.0281 15.5784 86.6617C15.3539 87.2904 14.9879 87.8353 14.4803 88.2962C13.9667 88.7533 13.3559 89.0603 12.6477 89.2173C12.1104 89.3364 11.5887 89.3521 11.0825 89.2644C10.5714 89.1778 10.1033 89.0075 9.67801 88.7533C9.24679 88.4953 8.88181 88.1663 8.58307 87.7662C8.28433 87.3661 8.07921 86.9146 7.96773 86.4115C7.84325 85.8499 7.84628 85.3086 7.9768 84.7878C8.10244 84.268 8.33359 83.7967 8.67025 83.3736C9.00202 82.9517 9.41677 82.6036 9.91449 82.3293C10.4073 82.0561 10.9587 81.8852 11.5686 81.8167L12.8204 87.4651C13.1433 87.3269 13.4215 87.1371 13.655 86.8958C13.8825 86.6507 14.043 86.3692 14.1365 86.0513C14.2289 85.7285 14.2386 85.3907 14.1656 85.038C14.0833 84.6668 13.9158 84.3503 13.6631 84.0887C13.4093 83.8221 13.0972 83.6274 12.7267 83.5046L12.7431 81.8792C13.4576 82.0283 14.0879 82.3523 14.634 82.8513C15.1752 83.3513 15.527 83.9677 15.6894 84.7003ZM11.6669 87.7745L10.7447 83.6133C10.4039 83.7401 10.1141 83.935 9.87516 84.198C9.6303 84.4572 9.45785 84.7542 9.35782 85.0889C9.25182 85.4198 9.23779 85.7611 9.31572 86.1128C9.39257 86.4595 9.54704 86.7635 9.77912 87.0246C10.0101 87.2809 10.2913 87.4747 10.6228 87.6062C10.9483 87.7339 11.2963 87.79 11.6669 87.7745Z" fill="white"/>
<path d="M14.0997 75.0421L6.59738 75.193L6.56599 73.6325L7.36123 73.6165C7.04591 73.3627 6.79439 73.0475 6.60669 72.671C6.41899 72.2945 6.32071 71.8862 6.31186 71.4461C6.30623 71.166 6.33815 70.8877 6.40764 70.6111L7.99565 71.2021C7.92455 71.3986 7.89096 71.5944 7.89489 71.7895C7.90153 72.1196 7.99014 72.4205 8.16072 72.6923C8.3263 72.9642 8.5483 73.1799 8.8267 73.3394C9.1051 73.4989 9.41186 73.5753 9.74696 73.5685L14.0683 73.4816L14.0997 75.0421Z" fill="white"/>
<path d="M7.89487 47.7522L8.48425 46.0108L12.7931 51.2558L17.2852 52.7762L16.7848 54.2546L12.2927 52.7342L5.68649 54.2771L6.27587 52.5357L10.9295 51.4489L7.89487 47.7522Z" fill="white"/>
<path d="M22.8271 41.6047C22.4606 42.1897 21.9755 42.6295 21.3717 42.9243C20.7706 43.2147 20.1275 43.3461 19.4424 43.3183C18.7558 43.2836 18.1051 43.0737 17.4904 42.6886C17.0241 42.3964 16.6413 42.0415 16.3422 41.6239C16.0388 41.2036 15.8248 40.7537 15.7002 40.2742C15.574 39.7878 15.5448 39.2973 15.6127 38.8026C15.6806 38.3079 15.8513 37.8423 16.1249 37.4056C16.4914 36.8206 16.9752 36.3829 17.5763 36.0924C18.1801 35.7977 18.8253 35.6677 19.5119 35.7024C20.2013 35.7328 20.8554 35.9419 21.4743 36.3297C21.9364 36.6192 22.317 36.9728 22.6162 37.3904C22.9153 37.808 23.128 38.2601 23.2542 38.7465C23.3788 39.226 23.4072 39.713 23.3393 40.2077C23.2741 40.6981 23.1033 41.1638 22.8271 41.6047ZM21.5045 40.776C21.7249 40.4242 21.8295 40.0499 21.8183 39.6532C21.8071 39.2566 21.6993 38.8821 21.495 38.5298C21.2891 38.1706 21.006 37.8781 20.6457 37.6523C20.2768 37.4213 19.8846 37.2936 19.4689 37.2693C19.0558 37.2407 18.6705 37.3092 18.3129 37.4748C17.9511 37.6377 17.6626 37.8909 17.4475 38.2343C17.2297 38.5819 17.1251 38.9562 17.1337 39.357C17.1449 39.7537 17.2535 40.1316 17.4594 40.4908C17.6679 40.8458 17.9545 41.1375 18.3191 41.3659C18.6963 41.6023 19.0907 41.7313 19.5022 41.753C19.9137 41.7746 20.2982 41.7027 20.6558 41.5371C21.0118 41.3646 21.2947 41.1109 21.5045 40.776Z" fill="white"/>
<path d="M26.1998 31.8232L22.862 28.5287L23.9584 27.4178L27.0238 30.4435C27.2624 30.679 27.5375 30.8346 27.8493 30.9104C28.1611 30.9862 28.4724 30.9842 28.7831 30.9043C29.0904 30.821 29.3599 30.6618 29.5919 30.4268C29.8273 30.1883 29.983 29.9166 30.0588 29.6119C30.1346 29.3001 30.1308 28.9906 30.0474 28.6834C29.9676 28.3727 29.8084 28.0995 29.5698 27.8641L26.5044 24.8384L27.6008 23.7276L32.9466 28.9935L31.8502 30.1043L31.2681 29.5404C31.3096 29.9398 31.2609 30.3381 31.122 30.7352C30.9831 31.1323 30.7608 31.4857 30.4551 31.7955C30.065 32.1907 29.6139 32.4554 29.1019 32.5896C28.5898 32.7238 28.0769 32.7271 27.5632 32.5996C27.0494 32.4721 26.595 32.2133 26.1998 31.8232Z" fill="white"/>
<path d="M37.4977 25.3333L33.2545 19.1444L34.5418 18.2618L34.9916 18.9178C35.0307 18.5149 35.1562 18.1317 35.3679 17.7682C35.5796 17.4047 35.867 17.0984 36.2301 16.8495C36.4612 16.6911 36.7114 16.565 36.9807 16.4713L37.3581 18.1232C37.1548 18.1716 36.9727 18.251 36.8117 18.3613C36.5394 18.548 36.3365 18.7873 36.2029 19.079C36.0665 19.3666 36.008 19.6706 36.0275 19.9908C36.0469 20.3111 36.1514 20.6095 36.3409 20.8859L38.785 24.4507L37.4977 25.3333Z" fill="white"/>
<path d="M53.3049 16.9319L50.7315 6.74659L54.0999 5.89554C54.8032 5.71786 55.4965 5.68458 56.1799 5.79572C56.862 5.902 57.4953 6.13155 58.0798 6.48437C58.663 6.83235 59.1634 7.28123 59.581 7.83102C60.0021 8.37474 60.3015 8.99824 60.4792 9.70151C60.6569 10.4048 60.6902 11.0981 60.5791 11.7815C60.4716 12.4587 60.2444 13.0914 59.8977 13.6795C59.5497 14.2628 59.1014 14.7656 58.5529 15.188C58.0031 15.6055 57.3765 15.9031 56.6733 16.0808L53.3049 16.9319ZM54.4358 15.0363L56.2909 14.5676C56.7857 14.4426 57.2231 14.234 57.6034 13.9419C57.9885 13.6485 58.3043 13.2953 58.5507 12.8821C58.8021 12.4678 58.9654 12.0215 59.0406 11.5432C59.1159 11.065 59.091 10.5785 58.966 10.0838C58.841 9.58912 58.6318 9.14921 58.3385 8.76412C58.0451 8.37902 57.6894 8.06385 57.2714 7.81859C56.8583 7.57211 56.4126 7.41125 55.9344 7.336C55.461 7.25953 54.977 7.28379 54.4822 7.40878L52.6271 7.8775L54.4358 15.0363Z" fill="white"/>
<path d="M67.7859 14.1715L67.5206 6.67239L69.0804 6.61722L69.1086 7.41212C69.3576 7.09297 69.6689 6.83668 70.0424 6.64326C70.416 6.44984 70.8228 6.34536 71.2628 6.3298C71.5427 6.31989 71.8215 6.34758 72.0991 6.41284L71.5324 8.00967C71.3348 7.94157 71.1385 7.91098 70.9435 7.91787C70.6135 7.92954 70.314 8.02273 70.0449 8.19744C69.7755 8.36714 69.5633 8.5924 69.408 8.8732C69.2528 9.154 69.181 9.46188 69.1929 9.79684L69.3457 14.1163L67.7859 14.1715Z" fill="white"/>
<path d="M80.7932 14.9572C80.1119 14.8455 79.5187 14.5681 79.0134 14.1253C78.5131 13.6833 78.1433 13.141 77.904 12.4985C77.6704 11.8519 77.6124 11.1706 77.7298 10.4548C77.8189 9.91181 77.9982 9.42161 78.2677 8.98423C78.538 8.54191 78.8701 8.17058 79.2641 7.87023C79.6639 7.56575 80.105 7.34916 80.5874 7.22047C81.0698 7.09178 81.5653 7.06915 82.0737 7.15257C82.6414 7.24572 83.1428 7.44965 83.5778 7.76436C84.0137 8.07413 84.3654 8.46389 84.633 8.93364C84.9015 9.39845 85.0706 9.91285 85.1403 10.4769C85.2108 11.0359 85.1645 11.6113 85.0015 12.203L79.2924 11.2663C79.3007 11.6175 79.3735 11.9462 79.5108 12.2527C79.6538 12.5549 79.8555 12.8086 80.1159 13.0135C80.3813 13.2193 80.6913 13.3538 81.0459 13.417C81.4211 13.4786 81.7771 13.4407 82.1139 13.3033C82.4557 13.1667 82.7524 12.9493 83.0042 12.6509L84.5071 13.2701C84.1031 13.8781 83.5681 14.3429 82.9019 14.6645C82.2366 14.9811 81.5337 15.0787 80.7932 14.9572ZM79.4338 10.0804L83.6397 10.7705C83.6486 10.407 83.5754 10.0655 83.42 9.74595C83.2703 9.4223 83.0587 9.15185 82.7851 8.9346C82.5172 8.71322 82.2056 8.57337 81.8502 8.51506C81.4997 8.45755 81.1601 8.48801 80.8314 8.60645C80.5077 8.72569 80.2232 8.91474 79.978 9.1736C79.7385 9.42833 79.5571 9.73061 79.4338 10.0804Z" fill="white"/>
<path d="M98.5969 12.2526L100.041 12.8444L97.196 19.7879L95.7448 19.1933L96.1018 18.1637C95.7521 18.4367 95.359 18.6108 94.9227 18.6861C94.4864 18.7615 94.0321 18.7024 93.56 18.5089C93.0508 18.3003 92.6106 18.009 92.2393 17.6353C91.87 17.2569 91.5842 16.8262 91.382 16.3433C91.1845 15.8623 91.0818 15.3607 91.0741 14.8386C91.0683 14.3118 91.1707 13.7915 91.3812 13.2777C91.5842 12.7824 91.8674 12.3551 92.2309 11.9958C92.5962 11.6319 93.0106 11.353 93.4739 11.159C93.9372 10.965 94.4221 10.8637 94.9284 10.8549C95.4413 10.8434 95.9454 10.9391 96.4407 11.1421C96.9453 11.3488 97.3423 11.6466 97.6316 12.0355C97.9275 12.4217 98.1297 12.8451 98.2383 13.3059L98.5969 12.2526ZM94.0971 17.099C94.5045 17.2659 94.9017 17.3125 95.2888 17.2386C95.6778 17.1601 96.0257 16.9837 96.3327 16.7095C96.6444 16.4371 96.8855 16.0926 97.0563 15.676C97.2289 15.2548 97.2997 14.8378 97.2688 14.4251C97.2379 14.0123 97.1105 13.6439 96.8865 13.3196C96.6691 12.9927 96.3567 12.7457 95.9493 12.5788C95.5466 12.4138 95.1369 12.3648 94.7201 12.4319C94.3034 12.4991 93.9276 12.6641 93.5928 12.9269C93.2581 13.1898 93.0053 13.5296 92.8346 13.9462C92.662 14.3674 92.605 14.7901 92.6637 15.2142C92.7289 15.6356 92.8841 16.0154 93.1294 16.3538C93.3811 16.6894 93.7037 16.9378 94.0971 17.099Z" fill="white"/>
<path d="M102.255 22.3738L106.8 16.4025L108.042 17.3477L107.56 17.9806C107.955 17.8914 108.356 17.8887 108.764 17.9726C109.175 18.0595 109.556 18.2363 109.907 18.5028C110.333 18.827 110.646 19.2289 110.847 19.7086C111.05 20.1842 111.129 20.6716 111.083 21.1705C111.551 20.9927 112.038 20.9356 112.543 20.9991C113.054 21.0617 113.523 21.2551 113.949 21.5793C114.391 21.9156 114.711 22.329 114.91 22.8197C115.109 23.3103 115.178 23.8186 115.117 24.3444C115.056 24.8703 114.858 25.3541 114.521 25.796L111.672 29.5401L110.43 28.5949L113.039 25.1673C113.239 24.9046 113.358 24.6153 113.397 24.2994C113.437 23.9835 113.4 23.6761 113.288 23.3771C113.176 23.0782 112.989 22.8287 112.726 22.6288C112.463 22.4288 112.176 22.3108 111.864 22.2746C111.552 22.2384 111.249 22.2813 110.955 22.4033C110.661 22.5253 110.408 22.7256 110.196 23.0043L107.588 26.4318L106.346 25.4866L108.954 22.0591C109.166 21.7804 109.292 21.4831 109.331 21.1672C109.37 20.8513 109.329 20.5464 109.207 20.2524C109.089 19.9614 108.899 19.7159 108.636 19.516C108.377 19.3191 108.087 19.205 107.765 19.1737C107.447 19.1455 107.141 19.1924 106.847 19.3144C106.553 19.4364 106.306 19.6287 106.106 19.8915L103.497 23.319L102.255 22.3738Z" fill="white"/>
<path d="M120.243 40.0974L129.337 34.8381L131.147 37.969C131.43 38.4583 131.565 38.9702 131.55 39.5045C131.538 40.0432 131.394 40.5484 131.118 41.0201C130.844 41.4962 130.458 41.8783 129.96 42.1663C129.454 42.4593 128.924 42.6035 128.373 42.599C127.828 42.5962 127.319 42.4657 126.846 42.2076C126.373 41.9494 125.999 41.5822 125.724 41.1058L124.694 39.326L121.024 41.4485L120.243 40.0974ZM126.045 38.5446L126.996 40.188C127.146 40.4479 127.347 40.6463 127.6 40.7834C127.855 40.9247 128.127 40.9956 128.417 40.996C128.708 41.0007 128.99 40.9241 129.263 40.7664C129.536 40.6086 129.743 40.4021 129.885 40.147C130.033 39.8937 130.107 39.6224 130.107 39.3333C130.115 39.046 130.043 38.7724 129.893 38.5125L128.942 36.8691L126.045 38.5446Z" fill="white"/>
<path d="M125.8 51.0398L132.89 48.5839L133.401 50.0587L132.649 50.3191C133.028 50.4634 133.364 50.6857 133.659 50.986C133.953 51.2863 134.173 51.6444 134.317 52.0604C134.408 52.3251 134.464 52.5998 134.483 52.8843L132.79 52.8115C132.797 52.6026 132.769 52.406 132.705 52.2216C132.597 51.9096 132.42 51.6507 132.174 51.4447C131.932 51.2371 131.655 51.1003 131.341 51.0344C131.027 50.9685 130.711 50.9903 130.395 51.1L126.31 52.5146L125.8 51.0398Z" fill="white"/>
<path d="M128.869 63.7043C128.776 63.0203 128.867 62.3718 129.142 61.7587C129.417 61.1507 129.827 60.6379 130.371 60.2205C130.92 59.8073 131.555 59.5518 132.273 59.4538C132.818 59.3795 133.34 59.4069 133.837 59.5361C134.339 59.6645 134.792 59.873 135.194 60.1614C135.603 60.4541 135.939 60.8122 136.204 61.2355C136.469 61.6589 136.636 62.1258 136.706 62.6364C136.799 63.3204 136.708 63.9665 136.432 64.5745C136.157 65.1876 135.745 65.7006 135.195 66.1138C134.646 66.5319 134.01 66.7903 133.286 66.8889C132.746 66.9625 132.227 66.9348 131.73 66.8056C131.233 66.6765 130.78 66.4656 130.372 66.1729C129.969 65.8845 129.635 65.5286 129.37 65.1052C129.106 64.6868 128.939 64.2198 128.869 63.7043ZM130.416 63.4936C130.472 63.905 130.631 64.2594 130.894 64.5568C131.156 64.8542 131.479 65.0728 131.861 65.2125C132.25 65.3565 132.654 65.3998 133.076 65.3424C133.507 65.2836 133.89 65.1305 134.225 64.8829C134.56 64.6403 134.812 64.3409 134.981 63.9847C135.154 63.6278 135.214 63.2486 135.159 62.8471C135.104 62.4407 134.944 62.0863 134.681 61.7839C134.418 61.4865 134.093 61.2658 133.705 61.1218C133.317 60.9827 132.91 60.9422 132.484 61.0003C132.043 61.0604 131.657 61.214 131.327 61.4609C130.998 61.7078 130.748 62.0093 130.58 62.3655C130.417 62.726 130.362 63.102 130.416 63.4936Z" fill="white"/>
<path d="M125.862 74.6484L126.004 73.0941L137.213 74.1149L137.072 75.6693L135.973 75.5692C136.334 75.8533 136.616 76.2005 136.82 76.6108C137.024 77.0212 137.102 77.4904 137.053 78.0185C137.004 78.5615 136.856 79.0604 136.608 79.5151C136.36 79.9747 136.038 80.3674 135.642 80.6929C135.251 81.019 134.809 81.2626 134.317 81.4237C133.825 81.5849 133.308 81.6407 132.765 81.5913C132.222 81.5418 131.72 81.3932 131.261 81.1454C130.801 80.8976 130.406 80.5777 130.075 80.1859C129.749 79.7946 129.505 79.3504 129.345 78.8536C129.183 78.3617 129.128 77.8442 129.177 77.3012C129.225 76.7731 129.386 76.3257 129.661 75.9589C129.94 75.5925 130.281 75.302 130.682 75.0874L125.862 74.6484ZM135.553 77.8668C135.592 77.4333 135.517 77.0423 135.328 76.6935C135.139 76.3447 134.868 76.0614 134.516 75.8435C134.17 75.626 133.772 75.4969 133.324 75.456C132.875 75.4152 132.458 75.4702 132.073 75.6209C131.687 75.7717 131.37 76.0015 131.121 76.3103C130.872 76.6192 130.727 76.9903 130.688 77.4237C130.649 77.8522 130.72 78.2555 130.902 78.6337C131.088 79.0124 131.356 79.3256 131.705 79.5734C132.054 79.8212 132.456 79.9657 132.909 80.007C133.352 80.0474 133.768 79.9773 134.156 79.7966C134.544 79.621 134.864 79.3638 135.116 79.025C135.368 78.6863 135.513 78.3002 135.553 77.8668Z" fill="white"/>
<path d="M126.696 89.4585C126.911 88.8025 127.277 88.259 127.792 87.8279C128.306 87.4015 128.898 87.1195 129.57 86.9819C130.245 86.8507 130.927 86.8981 131.616 87.1243C132.139 87.2958 132.596 87.5484 132.986 87.882C133.382 88.2171 133.698 88.6024 133.934 89.0379C134.173 89.4797 134.319 89.9489 134.372 90.4454C134.425 90.9419 134.371 91.4349 134.211 91.9245C134.031 92.4711 133.753 92.9351 133.375 93.3165C133.002 93.6995 132.562 93.9871 132.057 94.1793C131.557 94.3731 131.022 94.461 130.454 94.4431C129.891 94.4267 129.33 94.2925 128.77 94.0404L130.574 88.5434C130.226 88.4976 129.89 88.5189 129.566 88.6074C129.245 88.7023 128.963 88.8626 128.721 89.0883C128.477 89.3189 128.296 89.6045 128.179 89.9451C128.06 90.3064 128.043 90.664 128.127 91.0179C128.209 91.3766 128.379 91.7033 128.635 91.998L127.792 93.3877C127.253 92.895 126.876 92.2949 126.661 91.5872C126.45 90.881 126.462 90.1714 126.696 89.4585ZM131.724 88.8655L130.395 92.9152C130.753 92.98 131.101 92.9601 131.441 92.8557C131.784 92.7576 132.084 92.5901 132.34 92.3532C132.6 92.1226 132.787 91.8362 132.899 91.494C133.01 91.1565 133.032 90.8163 132.965 90.4733C132.897 90.1351 132.754 89.8249 132.536 89.5427C132.321 89.2669 132.051 89.0411 131.724 88.8655Z" fill="white"/>
<path d="M123.139 98.5774L129.669 102.274L128.9 103.632L128.208 103.24C128.35 103.619 128.406 104.019 128.375 104.438C128.344 104.858 128.221 105.259 128.004 105.642C127.866 105.886 127.696 106.109 127.496 106.312L126.431 104.994C126.592 104.861 126.721 104.709 126.817 104.54C126.98 104.252 127.057 103.948 127.049 103.627C127.045 103.309 126.964 103.01 126.806 102.731C126.648 102.452 126.423 102.23 126.131 102.065L122.37 99.9357L123.139 98.5774Z" fill="white"/>
<path d="M119.988 113.684L120.985 112.463L116.386 108.699L117.373 107.49L121.972 111.254L122.727 110.33L123.935 111.317L123.181 112.242L125.011 113.726L124.023 114.935L122.194 113.45L121.197 114.671L119.988 113.684Z" fill="white"/>
<path d="M112.232 123.211L110.953 124.278L106.902 113.001L108.175 111.938L109.535 115.69L116.41 119.727L115.102 120.818L110.306 117.832L112.232 123.211Z" fill="white"/>
</svg>
