<svg width="1920" height="1282" viewBox="0 0 1920 1282" fill="none" xmlns="http://www.w3.org/2000/svg">
<g style="mix-blend-mode:color-dodge">
<path d="M-1.0918 1280.7C638.897 1277.98 1279.04 1276.78 1919.03 1280.7" stroke="#666666" stroke-miterlimit="10"/>
<path d="M-1.0918 1255.18C184.187 1242.79 372.307 1238.57 557.842 1248.34C633.623 1252.34 709.609 1254.31 785.415 1250.11C868.082 1245.53 946.782 1227.25 1028.35 1216.09C1173.41 1196.23 1320.49 1242.89 1464.93 1250.67C1617.08 1258.89 1766.49 1237.54 1919.03 1256.99" stroke="#666666" stroke-miterlimit="10"/>
<path d="M-1.0918 1226.67C191.355 1205.4 390.817 1201.51 583.725 1220.6C661.068 1228.25 739.05 1232.3 816.521 1224.18C907.944 1214.64 987.283 1179.47 1075.25 1157.99C1222.18 1122.14 1367.24 1209.21 1511.48 1223.36C1574.79 1229.58 1637.46 1215.99 1700.62 1211.92C1775.3 1207.09 1846.55 1214.79 1919.03 1233.29" stroke="#666666" stroke-miterlimit="10"/>
<path d="M-1.0918 1195.75C197.269 1167 401.212 1170.54 599.726 1197.18C677.837 1207.65 755.999 1213.41 834.288 1201.28C875.02 1194.95 914.754 1184.33 953.617 1170.64C1006.46 1152.03 1055.18 1117.84 1107.59 1100.74C1254.67 1052.75 1394.25 1175.19 1533.72 1197.08C1597.73 1207.11 1656.13 1186.3 1719.18 1179.11C1789.41 1171.1 1853.36 1184.82 1919.05 1209.62" stroke="#666666" stroke-miterlimit="10"/>
<path d="M-1.0918 1162.88C193.096 1128.87 391.483 1139.52 584.98 1173.94C668.953 1188.89 753.054 1198.74 837.54 1181.59C944.81 1159.81 1023.92 1095.34 1122.13 1054.13C1281.39 987.304 1408.22 1149.42 1556.79 1174.07C1615.44 1183.79 1663.81 1158.97 1719.95 1148.14C1792.02 1134.24 1854.28 1154.69 1919.03 1185.94" stroke="#666666" stroke-miterlimit="10"/>
<path d="M-1.0918 1128.61C193.25 1088.74 383.879 1112.33 575.354 1155.51C659.583 1174.5 744.043 1184.89 829.014 1163.88C873.126 1152.98 914.805 1135.19 955.051 1114.3C1015.29 1083.05 1068.59 1030.84 1129.04 1002.92C1291.51 927.847 1407.43 1117.15 1551.95 1148.58C1617.72 1162.88 1661.48 1131.45 1722.13 1116.02C1794.22 1097.69 1857.07 1127.26 1919.03 1162.24" stroke="#666666" stroke-miterlimit="10"/>
<path d="M-1.0918 1093.47C189.41 1048.24 364.141 1086 548.728 1136.24C634.442 1159.56 720.105 1173.66 807.381 1149.47C853.566 1136.67 896.551 1115.58 937.821 1091.55C1002.49 1053.9 1058.28 993.882 1123.38 959.738C1294.37 870.08 1395.78 1089.91 1543.55 1124.93C1613.01 1141.38 1653.69 1103.66 1715.55 1084.18C1790.41 1060.61 1856.94 1099.77 1919 1138.54" stroke="#666666" stroke-miterlimit="10"/>
<path d="M-1.0918 1057.95C180.833 1007.83 335.339 1057.33 507.74 1114C593.249 1142.1 678.528 1163.14 767.647 1140.1C903.233 1105.07 991.61 998.437 1105.56 926.593C1290.61 809.958 1373.07 1069.69 1534.52 1102.76C1604.41 1117.09 1643.94 1072.53 1705.72 1051.01C1783.95 1023.75 1856.18 1072.84 1919.03 1114.79" stroke="#666666" stroke-miterlimit="10"/>
<path d="M-1.0918 1022.6C175.431 965.599 310.966 1029.66 473.075 1093.16C560.607 1127.43 649.138 1155.23 742.404 1126.9C880.678 1084.9 970.796 970.488 1085.11 890.914C1279.45 755.646 1343.25 1044.69 1510.17 1078.68C1581.21 1093.14 1625.07 1043.69 1685.9 1019.55C1771.82 985.461 1850.7 1043.48 1919.03 1091.17" stroke="#666666" stroke-miterlimit="10"/>
<path d="M-1.0918 987.892C77.9915 957.767 155.18 950.831 236.977 975.146C312.502 997.593 377.351 1042.92 448.626 1074.99C532.804 1112.87 619.286 1146.09 711.401 1115.92C857.714 1067.98 945.783 937.804 1065.19 851.447C1258.53 711.597 1314.78 1009.7 1473.51 1049.91C1553.87 1070.26 1600.44 1011.26 1668.77 984.284C1761.12 947.811 1847.39 1015.89 1919.03 1067.47" stroke="#666666" stroke-miterlimit="10"/>
<path d="M-1.0918 954.389C70.0806 922.165 140.997 912.132 216.163 937.317C290.203 962.118 350.341 1014.33 418.544 1050.47C497.883 1092.52 579.527 1134.73 670.822 1107.8C823.894 1062.71 919.977 916.509 1038.77 821.911C1241.33 660.587 1274.94 985 1440.89 1022.34C1526.04 1041.51 1579.06 973.099 1652.18 946.429C1750.54 910.571 1844.89 988.916 1919 1043.74" stroke="#666666" stroke-miterlimit="10"/>
<path d="M-1.0918 922.575C163.398 834.273 262.195 938.725 396.168 1023.14C472.256 1071.08 554.181 1126.54 647.422 1095.67C798.42 1045.69 897.755 895.393 1012.22 795.446C1086.11 730.947 1156.84 715.974 1220.13 797.57C1275.02 868.314 1310.27 970.206 1407.94 990.708C1492.99 1008.55 1553.05 938.52 1626.02 909.982C1733.39 867.956 1839.69 959.841 1919.03 1020.06" stroke="#666666" stroke-miterlimit="10"/>
<path d="M-1.0918 892.987C158.227 792.886 257.51 896.826 383.163 991.169C450.188 1041.49 526.071 1111.18 616.624 1087.56C671.744 1073.17 720.617 1032.3 762.706 996.211C843.607 926.875 910.76 845.074 987.565 771.822C1061.2 701.59 1133.78 673.947 1196.91 766.6C1243.97 835.655 1280.06 942.334 1374.66 957.409C1464.6 971.742 1530.42 894.6 1609.3 867.93C1723.07 829.435 1837.77 932.889 1919.03 996.313" stroke="#666666" stroke-miterlimit="10"/>
<path d="M-1.0918 866.164C61.0177 821.501 129.553 793.475 205.231 820.682C272.615 844.92 324.996 901.229 376.788 948.144C435.159 1001.02 508.892 1094.9 598.498 1076.45C648.933 1066.06 693.3 1027.46 730.986 994.598C814.165 922.037 887.079 837.984 961.861 757.13C1031.86 681.421 1109.43 626.956 1174.71 732.329C1218.67 803.252 1252.8 915.434 1352.49 919.375C1440.97 922.882 1507.46 852.24 1587.21 826.185C1709.53 786.232 1833.62 903.66 1919.05 972.638" stroke="#666666" stroke-miterlimit="10"/>
<path d="M-1.0918 841.542C62.6562 791.888 133.675 758.922 214.192 787.537C282.139 811.673 338.411 866.701 388.641 916.176C440.869 967.647 510.966 1068.75 596.475 1051.5C644.324 1041.85 686.414 1003.17 721.693 971.793C802.363 900 874.406 818.148 947.294 738.728C1014.04 666.013 1092.43 599.723 1158.63 704.61C1201.95 773.229 1234.85 882.749 1332.67 884.106C1420.39 885.309 1493.53 821.655 1575.43 799.848C1702.9 765.884 1827.48 877.221 1919.03 948.349" stroke="#666666" stroke-miterlimit="10"/>
<path d="M-1.0918 814.104C69.2358 758.794 144.274 729.053 230.244 767.445C301.34 799.208 363.603 859.304 418.621 912.516C467.981 960.276 529.143 1040.87 606.972 1015.76C654.463 1000.43 695.758 959.482 731.191 926.567C802.209 860.61 868.21 789.175 935.21 719.199C999.06 652.473 1076.53 587.565 1145.17 680.602C1193.99 746.79 1225.07 852.65 1322.54 857.487C1409.35 861.787 1493.3 804.532 1576.99 789.175C1703.56 765.935 1821.28 853.162 1919.05 920.373" stroke="#666666" stroke-miterlimit="10"/>
<path d="M-1.0918 783.621C74.5353 725.93 151.596 700.566 239.947 746.125C307.638 781.01 370.106 837.191 425.789 888.457C477.684 936.242 541.406 1018.58 619.824 982.134C660.761 963.117 694.452 926.9 726.608 896.263C794.247 831.765 858.226 763.376 924.278 697.29C992.609 628.926 1070.03 575.92 1140.92 666.807C1189.72 729.386 1224.87 827.9 1317.39 831.995C1402.52 835.783 1487.08 795.011 1570.15 781.445C1698.39 760.509 1812.24 825.878 1919.05 888.866" stroke="#666666" stroke-miterlimit="10"/>
<path d="M-1.0918 750.655C86.1328 687.743 169.338 673.512 262.221 732.048C328.964 774.1 390.664 831.074 450.392 882.442C500.264 925.339 556.357 992.679 626.147 953.672C663.526 932.787 694.632 895.547 724.406 865.422C787.796 801.256 849.521 735.528 914.754 673.205C982.342 608.63 1059.71 562.022 1131.65 643.618C1185.36 704.533 1222.56 801.691 1314.86 810.495C1396.19 818.251 1484.82 786.462 1564.83 774.074C1692.68 754.289 1805.18 799.464 1919 854.621" stroke="#666666" stroke-miterlimit="10"/>
<path d="M-1.0918 715.82C93.4037 652.269 180.296 645.461 274.996 711.956C346.45 762.121 410.659 825.519 478.605 880.497C525.328 918.275 577.018 970.078 635.415 926.67C674.022 897.978 705.538 854.749 737.591 819.53C791.79 760.023 847.345 701.308 906.971 647.201C980.038 580.885 1059.28 549.557 1132.85 629.49C1186.72 687.999 1227.99 779.321 1316.49 789.226C1400.26 798.594 1490.84 776.608 1573.82 765.218C1695.83 748.479 1804.44 775.738 1919.03 818.148" stroke="#666666" stroke-miterlimit="10"/>
<path d="M-1.0918 679.655C106.64 612.315 198.217 619.482 297.116 698.416C372.154 758.308 436.107 828.002 514.319 884.515C567.98 923.266 606.665 945.149 655.64 891.144C738.871 799.362 806.28 694.756 903.797 615.617C975.379 557.543 1054.13 535.89 1125.46 603.485C1185.72 660.587 1226.27 748.249 1313.27 768.827C1393.58 787.793 1494.37 769.083 1575.12 758.077C1694.3 741.825 1801.85 751.372 1919.05 780.242" stroke="#666666" stroke-miterlimit="10"/>
<path d="M-1.0918 642.773C119.543 572.413 217.776 595.269 319.491 685.337C392.354 749.861 452.952 824.572 535.646 877.579C596.347 916.509 628.298 923.394 669.824 861.403C735.62 763.196 801.851 662.814 897.703 590.381C975.199 531.794 1053.72 518.639 1129.45 586.183C1192.51 642.44 1237.39 732.943 1326.56 752.856C1405.64 770.516 1497.93 762.121 1577.66 751.269C1693.4 735.503 1802.13 728.387 1919.05 741.415" stroke="#666666" stroke-miterlimit="10"/>
<path d="M-1.0918 605.763C130.398 533.202 233.265 568.958 337.489 668.24C411.247 738.497 472.051 824.317 562.86 874.124C630.269 911.108 653.925 891.887 686.081 828.489C737.233 727.671 801.928 625.778 896.679 560.102C976.889 504.485 1058.02 502.77 1133.37 566.68C1199.09 622.451 1246.96 710.599 1335 735.324C1523.84 788.356 1729.35 709.089 1919.05 702.511" stroke="#666666" stroke-miterlimit="10"/>
<path d="M-1.0918 569.188C64.3203 534.354 125.815 513.673 199.01 539.038C259.558 560.025 309.148 604.074 353.567 648.942C426.839 723.013 489.486 822.678 587.105 866.701C660.325 899.719 677.658 855.235 702.363 793.168C742.635 691.915 803.438 588.18 898.446 528.902C1105.51 399.675 1180.24 661.15 1344.99 717.843C1537.38 784.056 1730.91 700.515 1919.05 664.094" stroke="#666666" stroke-miterlimit="10"/>
<path d="M-1.0918 533.637C67.1365 497.549 130.014 477.431 204.54 504.843C267.059 527.827 317.597 574.794 362.886 622.374C434.11 697.187 507.766 826.697 614.012 856.489C688.385 877.349 700.11 807.782 718.953 751.781C751.928 653.753 808.764 545.667 903.848 493.812C1101.24 386.16 1200.65 628.21 1349.67 696.624C1545.19 786.385 1734.52 694.346 1919.03 626.828" stroke="#666666" stroke-miterlimit="10"/>
<path d="M-1.0918 499.724C67.8021 462.254 129.86 441.906 205.692 468.447C268.57 490.459 319.952 539.575 364.653 587.437C437.182 665.117 514.934 812.671 627.709 834.682C704.36 849.655 715.113 773.101 731.856 715.616C760.607 616.999 812.373 507.838 911.733 461.972C1109.4 370.727 1216.01 603.101 1361.81 678.247C1437.72 717.356 1536 737.397 1620.56 723.78C1727.76 706.53 1825.79 643.029 1919.05 591.507" stroke="#666666" stroke-miterlimit="10"/>
<path d="M-1.0918 467.987C72.2824 425.576 143.199 401.133 224.433 437.785C285.39 465.299 333.751 515.875 377.453 564.965C442.942 638.525 525.482 793.501 635.645 805.121C718.569 813.874 729.04 723.345 746.808 662.225C774.278 567.755 823.74 466.477 923.305 430.03C1119.49 358.186 1232.93 573.616 1374.48 657.797C1446.01 700.336 1539.51 729.463 1623.18 719.045C1735.26 705.071 1832.26 623.987 1919 558.592" stroke="#666666" stroke-miterlimit="10"/>
<path d="M-1.0918 439.039C68.1861 394.914 136.389 364.2 218.237 397.243C283.828 423.734 336.056 479.965 381.114 532.511C445.528 607.632 526.531 761.865 640.971 764.578C722.563 766.498 737.668 674.664 756.92 613.339C786.695 518.588 833.776 426.677 938.205 399.879C1138.18 348.536 1249.21 545.513 1392.3 640.009C1462.35 686.284 1555.77 724.446 1641.1 712.135C1752.69 696.01 1842.35 603.28 1919.03 528.902" stroke="#666666" stroke-miterlimit="10"/>
<path d="M-1.0918 413.47C62.5026 367.374 128.555 328.752 209.43 355.831C272.461 376.921 322.103 428.571 364.525 477.559C434.007 557.773 503.9 700.464 623.51 709.575C714.447 716.486 738.078 628.133 764.242 558.234C799.931 462.868 849.675 382.117 958.968 367.348C1152.72 341.165 1264.37 507.71 1398.98 612.546C1466.47 665.092 1557.84 715.411 1646.14 706.811C1763.27 695.396 1849.47 586.516 1919.03 503.052" stroke="#666666" stroke-miterlimit="10"/>
<path d="M-1.0918 393.301C62.1953 349.151 127.454 312.806 206.716 338.606C268.442 358.697 317.571 408.07 359.481 455.573C426.992 532.05 498.447 678.862 614.627 682.88C704.463 685.977 735.21 606.429 767.417 536.504C808.712 446.897 864.601 364.866 970.591 350.558C1157.56 325.322 1274.35 480.912 1407.05 580.424C1472.15 629.234 1563.98 678.887 1647.6 677.249C1764.5 674.946 1851.08 563.788 1919.03 482.653" stroke="#666666" stroke-miterlimit="10"/>
<path d="M-1.0918 379.506C61.1969 336.891 125.508 301.544 203.209 325.04C263.245 343.187 311.657 389.411 352.901 434.662C419.338 507.582 490.484 652.858 602.901 653.549C691.047 654.086 728.579 583.957 767.059 515.644C814.063 432.205 875.763 352.145 977.99 338.119C1158.2 313.42 1279.94 452.963 1412.71 545.846C1477.17 590.944 1568 641.263 1647.78 648.378C1764.09 658.744 1852.08 546.486 1919 468.268" stroke="#666666" stroke-miterlimit="10"/>
<path d="M-1.0918 370.957C58.6623 330.134 122.538 294.839 197.167 313.779C260.787 329.903 311.324 377.996 354.642 424.553C420.49 495.322 486.516 626.776 596.526 621.888C679.757 618.202 722.179 555.035 765.65 492.865C819.03 416.49 883.469 344.876 981.216 331.004C1158.71 305.793 1283.06 426.421 1421.15 512.47C1484.95 552.245 1565.91 599.416 1639.41 618.433C1758.56 649.249 1849.29 537.63 1919.03 458.798" stroke="#666666" stroke-miterlimit="10"/>
<path d="M-1.0918 366.555C57.0238 326.346 119.543 290.283 192.943 305.204C254.054 317.643 303.721 360.438 346.296 403.411C413.065 470.777 475.226 591.763 581.805 587.028C662.655 583.445 711.273 530.259 760.735 472.952C820.003 404.307 888.41 339.092 982.394 325.424C1152.39 300.7 1282.65 397.141 1422.36 473.874C1491.69 511.958 1564.6 558.515 1637.38 589.331C1754.56 638.959 1846.68 531.564 1919 453.219" stroke="#666666" stroke-miterlimit="10"/>
<path d="M-1.0918 365.198C121.181 278.535 226.942 278.97 337.976 381.733C406.153 444.824 464.089 553.115 566.931 549.429C645.144 546.614 699.521 503.512 754.642 452.911C819.593 393.301 891.149 335.636 981.395 322.225C1143.38 298.14 1280.52 367.886 1421.49 434.048C1499.08 470.469 1561.86 516.156 1634.13 560.46C1748.27 630.411 1841.43 530.54 1919.05 450.557" stroke="#666666" stroke-miterlimit="10"/>
<path d="M-1.0918 365.787C112.707 282.451 217.443 266.275 330.142 359.03C400.111 416.618 454.002 510.96 552.671 509.015C716.956 505.79 818.134 344.927 978.707 320.664C1132.52 297.424 1277.02 338.631 1418.49 393.225C1504.97 426.6 1559.43 473.874 1629.58 531.538C1739.61 621.99 1833.13 533.509 1919.03 449.635" stroke="#666666" stroke-miterlimit="10"/>
<path d="M-1.0918 367.22C102.979 287.928 206.896 254.348 320.567 332.898C390.843 381.451 442.379 462.586 533.188 465.709C696.475 471.365 817.98 343.494 974.688 319.051C1117.67 296.758 1270.49 309.12 1408.43 350.481C1506.64 379.941 1556.79 433.511 1626.02 505.022C1651.88 531.743 1680.96 559.565 1719.8 563.762C1797.06 572.081 1869.34 495.527 1919.03 449.559" stroke="#666666" stroke-miterlimit="10"/>
<path d="M-1.0918 368.398C95.7334 291.665 199.164 242.907 315.37 307.15C387.259 346.898 437.259 414.366 522.998 419.357C682.522 428.648 816.905 343.187 970.361 319.358C1108.02 297.987 1264.01 280.173 1401.49 309.658C1507.25 332.335 1554.82 395.579 1618.93 476.408C1643.48 507.377 1671.28 543.005 1711.86 552.731C1790.25 571.518 1867.59 494.298 1919 449.277" stroke="#666666" stroke-miterlimit="10"/>
<path d="M-1.0918 368.193C93.4037 290.385 198.421 230.161 320.08 282.067C386.414 310.375 435.774 362.255 509.583 369.473C668.211 385.009 812.45 342.854 967.34 320.126C1048.96 308.148 1129.37 296.272 1210.3 279.968C1273.2 267.299 1334.34 260.721 1398.29 269.884C1508.79 285.701 1555.46 364.635 1612.76 450.634C1635.7 485.059 1663.27 527.802 1704.95 541.495C1784.82 567.755 1864.5 493.018 1919.03 447.639" stroke="#666666" stroke-miterlimit="10"/>
<path d="M-1.0918 365.531C89.9219 288.184 194.991 216.519 319.389 249.664C385.339 267.247 438.564 308.148 507.1 316.799C663.449 336.507 808.303 340.986 964.524 319.23C1047.24 307.713 1124.79 290.743 1203.69 263.408C1264.45 242.369 1322.74 225.119 1387.87 229.726C1503.85 237.916 1550.95 331.157 1603.31 421.712C1625.61 460.283 1652.54 509.911 1695.76 528.672C1777.17 564.018 1861.07 489.742 1919.08 443.749" stroke="#666666" stroke-miterlimit="10"/>
<path d="M-1.0918 359.312C88.6418 281.248 193.301 201.52 319.184 213.601C386.772 220.076 448.626 252.019 515.728 261.898C669.107 284.498 804.027 336.072 961.579 316.85C1044.94 306.663 1119.85 284.908 1194.96 247.693C1251.54 219.667 1305.46 191.308 1370.28 190.489C1496.29 188.953 1543.89 298.985 1594.63 396.04C1616.55 437.964 1642.89 492.507 1687.54 514.979C1770.38 556.698 1857.74 483.216 1919.03 436.454" stroke="#666666" stroke-miterlimit="10"/>
<path d="M-1.0918 348.434C90.4851 267.836 195.426 182.913 322.538 174.518C391.073 169.987 463.219 190.361 529.911 204.182C679.911 235.254 804.795 329.775 964.088 312.576C1045.99 303.745 1118.31 277.101 1186.98 232.157C1242.38 195.889 1293.15 157.011 1361.94 152.993C1490.69 145.493 1537.85 273.288 1584.82 370.266C1607.15 416.311 1632.78 472.005 1678.81 499.264C1761.48 548.201 1856.79 470.879 1919.03 424.808" stroke="#666666" stroke-miterlimit="10"/>
<path d="M-1.0918 331.746C155.616 194.149 320.771 88.0588 534.11 139.607C685.978 176.309 802.952 319.051 967.724 305.588C1051.21 298.755 1121.54 265.251 1185.06 212.193C1234.8 170.653 1279.12 125.094 1346.99 117.749C1476.43 103.748 1523.87 234.64 1568.23 331.49C1592.45 384.343 1618.67 450.454 1671.23 481.936C1755.97 532.69 1854.38 454.703 1919 407.711" stroke="#666666" stroke-miterlimit="10"/>
<path d="M-1.0918 309.069C149.702 180.277 343.685 37.8164 554.642 96.889C702.722 138.352 814.601 296.246 977.35 287.902C1058.74 283.73 1127.89 244.75 1185.34 189.516C1230.91 145.724 1271.64 96.3259 1338.67 88.9034C1462.83 75.1079 1513.37 204.31 1557.12 296.169C1583.31 351.121 1610.76 418.384 1664.62 452.195C1750.88 506.328 1850.49 432.41 1919 384.702" stroke="#666666" stroke-miterlimit="10"/>
<path d="M-1.0918 285.369C150.239 162.053 348.908 25.8892 556.537 77.0275C709.148 114.601 830.038 271.291 995.271 260.567C1070.16 255.704 1132.91 219.334 1185.49 168.042C1227.45 127.116 1264.24 80.4828 1325.51 70.4752C1447.7 50.5113 1508.07 182.964 1555.49 270.805C1582.73 321.227 1612.27 379.659 1661.71 412.19C1748.16 469.087 1845.45 406.099 1919.03 358.749" stroke="#666666" stroke-miterlimit="10"/>
<path d="M-1.0918 261.668C153.107 142.704 361.452 11.1467 567.545 63.5647C717.391 101.675 845.655 244.698 1007.36 235.919C1076.3 232.183 1136.67 195.454 1184.88 148.718C1223.51 111.273 1257.89 66.6616 1313.4 54.9136C1433.67 29.4725 1502.85 162.949 1555.23 246.285C1586.72 296.374 1619.64 351.505 1673.71 379.839C1759.27 424.655 1844.37 375.18 1919.03 330.876" stroke="#666666" stroke-miterlimit="10"/>
<path d="M-1.0918 237.967C158.048 122.714 371.463 1.67663 577.351 52.6613C725.763 89.4153 859.48 221.842 1018.7 210.965C1082.83 206.588 1137.64 174.364 1183.47 131.288C1222 95.0718 1256.61 50.9209 1311.66 40.7598C1426.02 19.6185 1500.52 144.956 1556.33 222.61C1588.36 267.171 1622.31 312.627 1671.13 339.629C1756.07 386.57 1841.69 343.596 1919.03 301.416" stroke="#666666" stroke-miterlimit="10"/>
<path d="M-1.0918 214.266C159.149 106.385 365.907 2.23971 566.828 40.0943C722.332 69.4002 862.86 199.319 1026.17 187.878C1088.1 183.527 1140.84 151.943 1185.95 111.35C1222.84 78.128 1256.36 39.8384 1307.48 30.1891C1413.32 10.1997 1492.12 118.158 1550.29 188.697C1588.36 234.896 1629.96 285.599 1686.92 309.223C1767.47 342.624 1846.75 306.945 1919.05 270.754" stroke="#666666" stroke-miterlimit="10"/>
<path d="M-1.0918 190.566C163.142 89.057 374.176 -4.08219 573.229 33.9772C724.969 63.0016 872.409 178.28 1031.11 166.583C1146.37 158.086 1196.68 45.1365 1300.57 22.2548C1405.02 -0.729284 1490.07 100.984 1554.28 166.814C1592.89 206.409 1633.19 248 1685.31 269.5C1766.01 302.773 1844.32 273.262 1919 239.221" stroke="#666666" stroke-miterlimit="10"/>
<path d="M-1.0918 166.865C167.469 72.6508 374.509 -3.82624 571.693 27.8856C724.662 52.4821 874.816 156.985 1033.21 145.135C1142.02 136.996 1200.19 35.5128 1300.62 15.8305C1398.55 -3.33993 1482.8 77.4114 1550.06 136.407C1591.58 172.854 1634.31 211.093 1686.62 231.338C1766.72 262.359 1843.35 238.556 1919.05 207.253" stroke="#666666" stroke-miterlimit="10"/>
<path d="M-1.0918 143.164C170.004 58.3945 374.74 -4.21016 568.365 23.3809C721.436 45.1877 875.149 135.588 1032.24 124.199C1136.64 116.623 1204.18 28.5767 1302.77 10.6604C1400.03 -7.02558 1488.61 65.945 1561.35 119.259C1600.85 148.206 1642.02 177.487 1688.61 193.97C1768.93 222.38 1842.22 203.645 1919.03 175.183" stroke="#666666" stroke-miterlimit="10"/>
<path d="M-1.0918 119.464C171.821 45.546 373.69 -3.95421 563.5 19.4906C716.828 38.4306 871.974 114.012 1028.22 103.672C1130.75 96.889 1209.15 23.253 1308.07 7.20509C1399.37 -7.58866 1485.44 47.4912 1560.14 92.3331C1681.57 165.227 1781.78 188.237 1919.03 143.318" stroke="#666666" stroke-miterlimit="10"/>
<path d="M-1.0918 95.7628C172.845 34.0028 364.32 -0.0126251 549.547 15.6257C706.076 28.8582 861.733 90.6439 1019.87 82.7095C1125.94 77.3858 1216.83 14.5764 1321.23 3.92896C1407.48 -4.87562 1488.9 34.3099 1564.78 70.1425C1686.49 127.654 1786.82 149.358 1919.03 112.118" stroke="#666666" stroke-miterlimit="10"/>
<path d="M-1.0918 72.0621C175.969 22.9714 365.011 0.115342 548.856 13.1431C702.286 24.0208 856.306 69.7074 1010.76 63.0784C1119.23 58.4201 1220.46 12.2984 1328.09 2.82838C1418.67 -5.13157 1503.72 26.4523 1587.95 55.5791C1701.08 94.7134 1800.77 109.277 1919.03 81.9417" stroke="#666666" stroke-miterlimit="10"/>
<path d="M-1.0918 48.387C173.383 14.602 354.13 1.26711 531.831 9.20148C686.567 16.1121 841.124 46.4162 996.295 42.321C1115.09 39.1985 1230.99 7.53782 1349.52 1.36949C1434.11 -3.0328 1515.88 16.4448 1597.73 35.3593C1706.74 60.5445 1807.79 72.2669 1919.03 53.0964" stroke="#666666" stroke-miterlimit="10"/>
<path d="M-1.0918 24.686C172.001 6.7697 346.859 1.26684 520.848 5.18283C673.817 8.63812 826.71 23.867 979.808 21.8194C1110.02 20.079 1239.56 3.80072 1369.72 0.575783C1554.33 -4.00567 1733.85 44.6243 1919.03 25.9913" stroke="#666666" stroke-miterlimit="10"/>
<path d="M-1.0918 0.985563C638.923 -2.54651 1279.01 4.85037 1919.03 0.985563" stroke="#666666" stroke-miterlimit="10"/>
</g>
</svg>
