<svg width="1920" height="1282" viewBox="0 0 1920 1282" fill="none" xmlns="http://www.w3.org/2000/svg">
<g clip-path="url(#clip0_288_130)">
<path d="M1 1276.4C640.344 1273.69 1279.84 1272.49 1919.18 1276.4" stroke="#2A2A2A" stroke-miterlimit="10"/>
<path d="M1 1250.91C186.092 1238.54 374.023 1234.32 559.371 1244.09C635.075 1248.07 710.984 1250.04 786.714 1245.85C869.298 1241.27 947.918 1223.02 1029.4 1211.87C1174.31 1192.03 1321.25 1238.64 1465.55 1246.41C1617.54 1254.62 1766.8 1233.3 1919.18 1252.73" stroke="#2A2A2A" stroke-miterlimit="10"/>
<path d="M1 1222.43C193.253 1201.18 392.514 1197.29 585.228 1216.37C662.492 1224.01 740.396 1228.05 817.788 1219.95C909.12 1210.41 988.379 1175.28 1076.26 1153.83C1223.04 1118.01 1367.95 1204.99 1512.04 1219.13C1575.29 1225.34 1637.9 1211.77 1701 1207.7C1775.6 1202.87 1846.78 1210.56 1919.18 1229.05" stroke="#2A2A2A" stroke-miterlimit="10"/>
<path d="M1 1191.54C199.161 1162.83 402.898 1166.36 601.213 1192.97C679.244 1203.43 757.327 1209.18 835.538 1197.06C876.229 1190.75 915.923 1180.14 954.747 1166.46C1007.54 1147.87 1056.21 1113.71 1108.56 1096.63C1255.49 1048.69 1394.93 1171.01 1534.27 1192.87C1598.21 1202.89 1656.55 1182.11 1719.54 1174.92C1789.69 1166.92 1853.58 1180.62 1919.21 1205.4" stroke="#2A2A2A" stroke-miterlimit="10"/>
<path d="M1 1158.71C194.992 1124.73 393.179 1135.37 586.481 1169.76C670.37 1184.69 754.386 1194.53 838.786 1177.4C945.949 1155.64 1024.98 1091.23 1123.09 1050.07C1282.19 983.308 1408.9 1145.26 1557.31 1169.88C1615.91 1179.6 1664.22 1154.8 1720.31 1143.98C1792.3 1130.1 1854.5 1150.53 1919.18 1181.75" stroke="#2A2A2A" stroke-miterlimit="10"/>
<path d="M1 1124.47C195.146 1084.64 385.583 1108.21 576.864 1151.35C661.009 1170.32 745.383 1180.7 830.269 1159.71C874.336 1148.82 915.974 1131.05 956.179 1110.18C1016.36 1078.96 1069.61 1026.8 1129.99 998.905C1292.3 923.912 1408.1 1113.02 1552.48 1144.42C1618.18 1158.71 1661.89 1127.31 1722.48 1111.89C1794.5 1093.59 1857.29 1123.12 1919.18 1158.07" stroke="#2A2A2A" stroke-miterlimit="10"/>
<path d="M1 1089.37C191.309 1044.19 365.864 1081.9 550.266 1132.09C635.893 1155.39 721.47 1169.48 808.658 1145.31C854.797 1132.53 897.738 1111.46 938.967 1087.45C1003.57 1049.84 1059.3 989.88 1124.34 955.771C1295.16 866.203 1396.47 1085.81 1544.09 1120.79C1613.48 1137.23 1654.12 1099.54 1715.91 1080.09C1790.69 1056.54 1857.16 1095.66 1919.16 1134.4" stroke="#2A2A2A" stroke-miterlimit="10"/>
<path d="M1 1053.88C182.742 1003.81 337.091 1053.26 509.319 1109.87C594.742 1137.95 679.935 1158.97 768.964 1135.95C904.414 1100.95 992.701 994.431 1106.54 922.659C1291.4 806.141 1373.78 1065.61 1535.06 1098.65C1604.88 1112.97 1644.37 1068.45 1706.09 1046.95C1784.25 1019.72 1856.4 1068.76 1919.18 1110.67" stroke="#2A2A2A" stroke-miterlimit="10"/>
<path d="M1 1018.57C177.345 961.626 312.743 1025.62 474.689 1089.06C562.133 1123.3 650.574 1151.07 743.746 1122.76C881.881 1080.8 971.908 966.51 1086.1 887.016C1280.25 751.884 1343.98 1040.63 1510.74 1074.59C1581.71 1089.04 1625.52 1039.64 1686.29 1015.53C1772.12 981.467 1850.92 1039.43 1919.18 1087.07" stroke="#2A2A2A" stroke-miterlimit="10"/>
<path d="M1 983.896C80.0036 953.802 157.115 946.873 238.829 971.163C314.278 993.587 379.061 1038.87 450.264 1070.91C534.357 1108.75 620.753 1141.94 712.774 1111.79C858.94 1063.9 946.921 933.858 1066.21 847.589C1259.35 707.88 1315.54 1005.68 1474.11 1045.85C1554.4 1066.18 1600.92 1007.24 1669.18 980.291C1761.43 943.856 1847.62 1011.87 1919.18 1063.39" stroke="#2A2A2A" stroke-miterlimit="10"/>
<path d="M1 950.427C72.1007 918.236 142.946 908.213 218.036 933.372C292.001 958.149 352.079 1010.31 420.213 1046.41C499.472 1088.42 581.033 1130.59 672.237 1103.69C825.154 1058.63 921.14 912.585 1039.81 818.082C1242.17 656.921 1275.75 981.007 1441.53 1018.31C1526.6 1037.46 1579.56 969.118 1652.61 942.475C1750.87 906.653 1845.12 984.919 1919.16 1039.69" stroke="#2A2A2A" stroke-miterlimit="10"/>
<path d="M1 918.645C165.324 830.432 264.021 934.779 397.859 1019.1C473.871 1067 555.713 1122.4 648.86 1091.57C799.706 1041.63 898.94 891.491 1013.29 791.644C1087.1 727.21 1157.77 712.252 1220.99 793.766C1275.83 864.439 1311.04 966.228 1408.61 986.709C1493.58 1004.53 1553.58 934.574 1626.47 906.065C1733.73 864.081 1839.92 955.873 1919.18 1016.04" stroke="#2A2A2A" stroke-miterlimit="10"/>
<path d="M1 889.087C160.158 789.087 259.341 892.922 384.867 987.169C451.824 1037.44 527.631 1107.06 618.093 1083.46C673.157 1069.09 721.982 1028.26 764.028 992.206C844.848 922.94 911.933 841.222 988.66 768.044C1062.22 697.882 1134.72 670.268 1197.79 762.828C1244.8 831.812 1280.86 938.384 1375.37 953.444C1465.21 967.762 1530.97 890.698 1609.77 864.055C1723.43 825.599 1838.01 928.949 1919.18 992.309" stroke="#2A2A2A" stroke-miterlimit="10"/>
<path d="M1 862.291C63.0469 817.673 131.513 789.675 207.115 816.855C274.431 841.068 326.759 897.32 378.499 944.188C436.811 997.013 510.47 1090.8 599.985 1072.36C650.369 1061.98 694.692 1023.43 732.34 990.596C815.435 918.108 888.275 834.139 962.982 753.367C1032.91 677.734 1110.4 623.324 1175.62 728.591C1219.53 799.442 1253.63 911.511 1353.22 915.448C1441.61 918.951 1508.03 848.381 1587.7 822.352C1709.9 782.439 1833.86 899.749 1919.21 968.657" stroke="#2A2A2A" stroke-miterlimit="10"/>
<path d="M1 837.693C64.6837 788.09 135.631 755.157 216.067 783.743C283.945 807.855 340.161 862.828 390.34 912.252C442.515 963.671 512.541 1064.67 597.964 1047.44C645.766 1037.8 687.812 999.161 723.056 967.814C803.645 896.093 875.615 814.323 948.429 734.983C1015.11 662.342 1093.42 596.118 1159.56 700.9C1202.83 769.45 1235.7 878.859 1333.42 880.215C1421.04 881.416 1494.11 817.826 1575.93 796.042C1703.27 762.112 1827.73 873.336 1919.18 944.393" stroke="#2A2A2A" stroke-miterlimit="10"/>
<path d="M1 810.283C71.2567 755.029 146.219 725.318 232.103 763.671C303.127 795.402 365.327 855.438 420.289 908.596C469.6 956.308 530.7 1036.82 608.451 1011.74C655.894 996.425 697.147 955.515 732.544 922.633C803.491 856.742 869.426 785.379 936.358 715.474C1000.14 648.816 1077.54 583.973 1146.1 676.916C1194.88 743.037 1225.93 848.79 1323.29 853.623C1410.02 857.918 1493.88 800.721 1577.49 785.379C1703.94 762.163 1821.54 849.302 1919.21 916.446" stroke="#2A2A2A" stroke-miterlimit="10"/>
<path d="M1 779.831C76.5509 722.199 153.534 696.86 241.796 742.373C309.418 777.223 371.823 833.347 427.451 884.561C479.293 932.299 542.951 1014.55 621.29 978.144C662.185 959.146 695.843 922.966 727.966 892.36C795.537 827.926 859.451 759.606 925.437 693.587C993.699 625.293 1071.04 572.339 1141.86 663.134C1190.61 725.651 1225.72 824.065 1318.15 828.156C1403.19 831.941 1487.67 791.209 1570.66 777.658C1698.77 756.742 1812.51 822.045 1919.21 884.97" stroke="#2A2A2A" stroke-miterlimit="10"/>
<path d="M1 746.898C88.1367 684.05 171.258 669.833 264.047 728.31C330.723 770.319 392.361 827.236 452.029 878.552C501.851 921.406 557.887 988.678 627.607 949.711C664.947 928.847 696.022 891.644 725.767 861.549C789.092 797.448 850.756 731.787 915.923 669.527C983.443 605.016 1060.73 558.455 1132.6 639.969C1186.26 700.823 1223.42 797.883 1315.62 806.678C1396.88 814.426 1485.42 782.669 1565.34 770.294C1693.07 750.529 1805.45 795.658 1919.16 850.759" stroke="#2A2A2A" stroke-miterlimit="10"/>
<path d="M1 712.099C95.4002 648.611 182.204 641.81 276.809 708.238C348.191 758.353 412.335 821.687 480.214 876.609C526.889 914.349 578.527 966.1 636.865 922.736C675.434 894.073 706.917 850.887 738.938 815.704C793.082 756.256 848.582 697.601 908.148 643.549C981.141 577.299 1060.3 546.003 1133.8 625.855C1187.61 684.305 1228.84 775.535 1317.26 785.43C1400.94 794.789 1491.43 772.825 1574.32 761.447C1696.21 744.725 1804.71 771.956 1919.18 814.323" stroke="#2A2A2A" stroke-miterlimit="10"/>
<path d="M1 675.97C108.623 608.698 200.107 615.858 298.907 694.712C373.869 754.543 437.758 824.167 515.892 880.624C569.499 919.335 608.144 941.196 657.07 887.246C740.217 795.556 807.558 691.056 904.976 611.997C976.486 553.981 1055.16 532.349 1126.41 599.877C1186.62 656.921 1227.13 744.495 1314.04 765.052C1394.27 783.999 1494.96 765.308 1575.62 754.313C1694.68 738.077 1802.12 747.614 1919.21 776.456" stroke="#2A2A2A" stroke-miterlimit="10"/>
<path d="M1 639.125C121.513 568.836 219.647 591.669 321.26 681.646C394.049 746.105 454.587 820.741 537.196 873.694C597.837 912.585 629.755 919.463 671.239 857.535C736.969 759.427 803.133 659.146 898.889 586.786C976.307 528.258 1054.75 515.116 1130.4 582.592C1193.39 638.793 1238.23 729.204 1327.31 749.097C1406.31 766.74 1498.51 758.353 1578.16 747.512C1693.78 731.761 1802.41 724.653 1919.21 737.668" stroke="#2A2A2A" stroke-miterlimit="10"/>
<path d="M1 602.153C132.357 529.665 235.121 565.384 339.24 664.566C412.924 734.753 473.666 820.486 564.383 870.243C631.725 907.19 655.357 887.988 687.48 824.653C738.58 723.937 803.21 622.147 897.866 556.538C977.995 500.976 1059.04 499.263 1134.31 563.109C1199.97 618.823 1247.79 706.883 1335.75 731.582C1524.4 784.561 1729.69 705.374 1919.21 698.803" stroke="#2A2A2A" stroke-miterlimit="10"/>
<path d="M1 565.615C66.3461 530.815 127.779 510.156 200.9 535.494C261.387 556.461 310.927 600.465 355.301 645.287C428.499 719.284 491.083 818.849 588.604 862.828C661.75 895.812 679.065 851.373 703.746 789.368C743.977 688.218 804.719 584.587 899.631 525.369C1106.49 396.272 1181.14 657.484 1345.72 714.119C1537.93 780.266 1731.25 696.809 1919.21 660.424" stroke="#2A2A2A" stroke-miterlimit="10"/>
<path d="M1 530.099C69.1595 494.047 131.974 473.95 206.425 501.334C268.881 524.295 319.367 571.214 364.611 618.747C435.763 693.485 509.344 822.864 615.484 852.626C689.782 873.464 701.495 803.968 720.319 748.023C753.261 650.094 810.039 542.117 905.027 490.314C1102.22 382.771 1201.53 624.577 1350.4 692.922C1545.73 782.592 1734.86 690.647 1919.18 623.196" stroke="#2A2A2A" stroke-miterlimit="10"/>
<path d="M1 496.22C69.8244 458.788 131.82 438.46 207.576 464.975C270.39 486.965 321.72 536.031 366.376 583.845C438.832 661.447 516.506 808.852 629.167 830.841C705.741 845.799 716.483 769.322 733.209 711.894C761.931 613.377 813.645 504.326 912.905 458.506C1110.38 367.353 1216.87 599.493 1362.53 674.564C1438.36 713.633 1536.54 733.653 1621.02 720.051C1728.11 702.817 1826.04 639.381 1919.21 587.911" stroke="#2A2A2A" stroke-miterlimit="10"/>
<path d="M1 464.515C74.3002 422.147 145.145 397.729 226.297 434.344C287.193 461.83 335.506 512.355 379.164 561.396C444.586 634.881 527.043 789.701 637.095 801.309C719.935 810.053 730.396 719.616 748.146 658.558C775.588 564.183 825.001 463.007 924.465 426.596C1120.45 354.824 1233.78 570.038 1375.19 654.134C1446.65 696.63 1540.05 725.727 1623.63 715.321C1735.6 701.36 1832.51 620.358 1919.16 555.029" stroke="#2A2A2A" stroke-miterlimit="10"/>
<path d="M1 435.597C70.2081 391.516 138.342 360.833 220.108 393.843C285.633 420.306 337.808 476.481 382.821 528.974C447.17 604.019 528.091 758.097 642.415 760.808C723.925 762.725 739.015 670.984 758.248 609.721C787.993 515.065 835.026 423.247 939.35 396.476C1139.12 345.185 1250.04 541.963 1392.99 636.364C1462.96 682.592 1556.29 720.716 1641.53 708.417C1753.02 692.309 1842.58 599.672 1919.18 525.369" stroke="#2A2A2A" stroke-miterlimit="10"/>
<path d="M1 410.053C64.5303 364.004 130.516 325.42 211.31 352.472C274.277 373.541 323.869 425.139 366.248 474.078C435.661 554.211 505.482 696.757 624.973 705.86C715.818 712.764 739.424 624.5 765.563 554.671C801.215 459.401 850.909 378.731 960.092 363.978C1153.65 337.821 1265.19 504.198 1399.66 608.928C1467.08 661.421 1558.36 711.69 1646.57 703.099C1763.58 691.695 1849.69 582.925 1919.18 499.544" stroke="#2A2A2A" stroke-miterlimit="10"/>
<path d="M1 389.905C64.2233 345.799 129.416 309.491 208.599 335.264C270.262 355.336 319.342 404.658 361.209 452.114C428.653 528.514 500.035 675.177 616.098 679.192C705.843 682.286 736.56 602.817 768.734 532.963C809.988 443.446 865.82 361.498 971.703 347.205C1158.48 321.994 1275.16 477.427 1407.72 576.839C1472.76 625.599 1564.5 675.203 1648.03 673.567C1764.81 671.265 1851.31 560.22 1919.18 479.166" stroke="#2A2A2A" stroke-miterlimit="10"/>
<path d="M1 376.123C63.2259 333.551 127.472 298.24 205.095 321.713C265.07 339.841 313.434 386.019 354.636 431.224C421.006 504.07 492.081 649.199 604.384 649.89C692.441 650.427 729.936 580.368 768.376 512.124C815.333 428.77 876.971 348.79 979.095 334.778C1159.12 310.104 1280.74 449.506 1413.37 542.296C1477.77 587.348 1568.51 637.617 1648.21 644.725C1764.4 655.08 1852.3 542.935 1919.16 464.796" stroke="#2A2A2A" stroke-miterlimit="10"/>
<path d="M1 367.583C60.6939 326.801 124.505 291.541 199.059 310.462C262.615 326.571 313.101 374.615 356.376 421.125C422.156 491.823 488.116 623.145 598.016 618.261C681.162 614.579 723.542 551.475 766.969 489.368C820.295 413.07 884.669 341.529 982.317 327.67C1159.63 302.485 1283.86 422.991 1421.81 508.954C1485.55 548.688 1566.42 595.811 1639.85 614.809C1758.87 645.594 1849.52 534.088 1919.18 455.336" stroke="#2A2A2A" stroke-miterlimit="10"/>
<path d="M1 363.185C59.057 323.017 121.513 286.99 194.839 301.897C255.888 314.323 305.505 357.074 348.038 400.005C414.74 467.302 476.838 588.166 583.31 583.436C664.078 579.856 712.646 526.724 762.059 469.475C821.267 400.9 889.605 335.75 983.494 322.096C1153.32 297.397 1283.45 393.74 1423.01 470.396C1492.27 508.442 1565.11 554.952 1637.82 585.737C1754.89 635.315 1846.91 528.028 1919.16 449.762" stroke="#2A2A2A" stroke-miterlimit="10"/>
<path d="M1 361.83C123.15 275.254 228.804 275.689 339.726 378.348C407.834 441.375 465.712 549.557 568.45 545.875C646.584 543.063 700.907 500.005 755.972 449.455C820.857 389.905 892.342 332.298 982.496 318.9C1144.31 294.84 1281.32 364.515 1422.14 430.611C1499.66 466.995 1562.38 512.636 1634.58 556.896C1748.59 626.775 1841.66 527.005 1919.21 447.103" stroke="#2A2A2A" stroke-miterlimit="10"/>
<path d="M1 362.418C114.684 279.166 219.315 263.006 331.9 355.668C401.798 413.198 455.635 507.445 554.204 505.502C718.324 502.28 819.4 341.58 979.811 317.34C1133.47 294.124 1277.82 335.29 1419.15 389.828C1505.55 423.17 1559.95 470.396 1630.02 528.003C1739.95 618.363 1833.38 529.971 1919.18 446.182" stroke="#2A2A2A" stroke-miterlimit="10"/>
<path d="M1 363.85C104.966 284.638 208.778 251.091 322.334 329.562C392.54 378.067 444.024 459.12 534.741 462.239C697.863 467.89 819.246 340.148 975.796 315.729C1118.64 293.459 1271.3 305.809 1409.1 347.128C1507.21 376.558 1557.31 430.074 1626.47 501.513C1652.3 528.207 1681.35 556.001 1720.15 560.194C1797.34 568.504 1869.54 492.027 1919.18 446.105" stroke="#2A2A2A" stroke-miterlimit="10"/>
<path d="M1 365.026C97.7276 288.371 201.054 239.662 317.142 303.84C388.959 343.548 438.909 410.948 524.562 415.934C683.925 425.216 818.172 339.841 971.473 316.036C1108.99 294.686 1264.83 276.89 1402.17 306.346C1507.82 329 1555.34 392.181 1619.38 472.927C1643.91 503.866 1671.69 539.457 1712.22 549.174C1790.54 567.941 1867.8 490.8 1919.16 445.824" stroke="#2A2A2A" stroke-miterlimit="10"/>
<path d="M1 364.822C95.4002 287.092 200.312 226.929 321.848 278.782C388.115 307.062 437.425 358.89 511.16 366.1C669.628 381.621 813.722 339.509 968.455 316.803C1049.99 304.837 1130.32 292.973 1211.17 276.686C1274.01 264.029 1335.08 257.458 1398.97 266.612C1509.36 282.413 1555.98 361.268 1613.22 447.179C1636.14 481.57 1663.68 524.27 1705.32 537.949C1785.12 564.183 1864.71 489.521 1919.18 444.188" stroke="#2A2A2A" stroke-miterlimit="10"/>
<path d="M1 362.163C91.9219 284.893 196.885 213.3 321.158 246.412C387.041 263.978 440.213 304.837 508.679 313.479C664.871 333.167 809.579 337.642 965.642 315.908C1048.28 304.402 1125.75 287.45 1204.57 260.143C1265.26 239.125 1323.5 221.892 1388.56 226.494C1504.42 234.676 1551.48 327.824 1603.78 418.286C1626.06 456.819 1652.97 506.397 1696.14 525.139C1777.47 560.45 1861.28 486.249 1919.24 440.301" stroke="#2A2A2A" stroke-miterlimit="10"/>
<path d="M1 355.949C90.6431 277.964 195.197 198.317 320.953 210.386C388.473 216.855 450.264 248.765 517.298 258.634C670.523 281.212 805.307 332.733 962.701 313.531C1045.98 303.354 1120.81 281.621 1195.85 244.443C1252.37 216.445 1306.23 188.115 1370.99 187.297C1496.88 185.763 1544.42 295.684 1595.11 392.641C1617.01 434.523 1643.32 489.01 1687.93 511.46C1770.69 553.137 1857.96 479.729 1919.18 433.014" stroke="#2A2A2A" stroke-miterlimit="10"/>
<path d="M1 345.083C92.4846 264.566 197.32 179.728 324.304 171.342C392.77 166.816 464.843 187.169 531.467 200.976C681.316 232.017 806.075 326.443 965.207 309.261C1047.02 300.439 1119.28 273.822 1187.87 228.923C1243.22 192.692 1293.93 153.853 1362.65 149.838C1491.28 142.347 1538.39 270.012 1585.32 366.893C1607.62 412.891 1633.22 468.529 1679.21 495.76C1761.79 544.648 1857.01 467.404 1919.18 421.38" stroke="#2A2A2A" stroke-miterlimit="10"/>
<path d="M1 328.412C157.549 190.953 322.539 84.97 535.662 136.466C687.377 173.132 804.233 315.729 968.839 302.28C1052.24 295.453 1122.5 261.984 1185.95 208.979C1235.65 167.481 1279.92 121.968 1347.72 114.63C1477.03 100.644 1524.42 231.403 1568.74 328.156C1592.94 380.956 1619.13 447 1671.64 478.45C1756.29 529.153 1854.61 451.245 1919.16 404.3" stroke="#2A2A2A" stroke-miterlimit="10"/>
<path d="M1 305.758C151.641 177.095 345.429 34.7782 556.174 93.7913C704.104 135.213 815.87 292.948 978.456 284.612C1059.76 280.444 1128.84 241.503 1186.23 186.325C1231.76 142.577 1272.45 93.2288 1339.41 85.8138C1463.45 72.0321 1513.94 201.104 1557.64 292.871C1583.81 347.767 1611.23 414.962 1665.04 448.739C1751.2 502.817 1850.72 428.974 1919.16 381.314" stroke="#2A2A2A" stroke-miterlimit="10"/>
<path d="M1 282.081C152.178 158.89 350.647 22.8631 558.066 73.9498C710.524 111.485 831.292 268.018 996.359 257.304C1071.17 252.446 1133.85 216.113 1186.39 164.873C1228.31 123.988 1265.06 77.4016 1326.26 67.4042C1448.33 47.4604 1508.64 179.78 1556.01 267.532C1583.22 317.903 1612.73 376.277 1662.12 408.775C1748.49 465.614 1845.68 402.689 1919.18 355.387" stroke="#2A2A2A" stroke-miterlimit="10"/>
<path d="M1 258.404C155.043 139.56 363.179 8.13548 569.064 60.5006C718.759 98.5727 846.894 241.452 1008.43 232.682C1077.31 228.949 1137.61 192.257 1185.77 145.568C1224.37 108.161 1258.71 63.5945 1314.16 51.8583C1434.32 26.4428 1503.42 159.785 1555.75 243.037C1587.21 293.076 1620.1 348.151 1674.12 376.456C1759.59 421.227 1844.61 371.802 1919.18 327.542" stroke="#2A2A2A" stroke-miterlimit="10"/>
<path d="M1 234.727C159.979 119.59 373.179 -1.32511 578.859 49.6082C727.122 86.3251 860.705 218.619 1019.76 207.752C1083.83 203.38 1138.59 171.188 1184.37 128.156C1222.86 91.9759 1257.44 47.8695 1312.42 37.7186C1426.67 16.5987 1501.1 141.81 1556.85 219.386C1588.85 263.901 1622.76 309.312 1671.53 336.287C1756.39 383.18 1841.92 340.25 1919.18 298.112" stroke="#2A2A2A" stroke-miterlimit="10"/>
<path d="M1 211.05C161.079 103.277 367.629 -0.762593 568.348 37.0538C723.695 66.3302 864.081 196.118 1027.23 184.689C1089.1 180.342 1141.78 148.79 1186.85 108.238C1223.7 75.0492 1257.18 36.7981 1308.26 27.1587C1413.99 7.18934 1492.71 115.039 1550.82 185.507C1588.85 231.659 1630.41 282.311 1687.31 305.911C1767.78 339.278 1846.98 303.635 1919.21 267.481" stroke="#2A2A2A" stroke-miterlimit="10"/>
<path d="M1 187.373C165.069 85.9672 375.89 -7.07812 574.742 30.9429C726.329 59.938 873.62 175.1 1032.16 163.415C1147.31 154.927 1197.56 42.0909 1301.35 19.2323C1405.7 -3.72859 1490.66 97.8823 1554.81 163.646C1593.37 203.201 1633.63 244.75 1685.7 266.228C1766.32 299.468 1844.55 269.987 1919.16 235.98" stroke="#2A2A2A" stroke-miterlimit="10"/>
<path d="M1 163.697C169.391 69.5776 376.222 -6.82237 573.207 24.8575C726.022 49.4293 876.024 153.827 1034.26 141.989C1142.96 133.858 1201.07 32.4771 1301.4 12.8146C1399.23 -6.33655 1483.4 74.3334 1550.59 133.27C1592.07 169.68 1634.76 207.88 1687.01 228.105C1767.03 259.094 1843.58 235.315 1919.21 204.045" stroke="#2A2A2A" stroke-miterlimit="10"/>
<path d="M1 140.02C171.923 55.3357 376.453 -7.20587 569.882 20.3574C722.8 42.1421 876.357 132.452 1033.29 121.073C1137.59 113.505 1205.06 25.5479 1303.55 7.64967C1400.71 -10.0185 1489.2 62.8785 1561.86 116.139C1601.33 145.057 1642.45 174.308 1689 190.774C1769.23 219.156 1842.46 200.439 1919.18 172.007" stroke="#2A2A2A" stroke-miterlimit="10"/>
<path d="M1 116.343C173.739 42.5 375.404 -6.95027 565.023 16.4709C718.196 35.3919 873.186 110.897 1029.27 100.567C1131.71 93.7913 1210.02 20.2295 1308.84 4.19778C1400.05 -10.5811 1486.03 44.4433 1560.66 89.24C1681.97 162.06 1782.07 185.047 1919.18 140.173" stroke="#2A2A2A" stroke-miterlimit="10"/>
<path d="M1 92.6663C174.762 30.9685 366.043 -3.01262 551.084 12.61C707.454 25.8291 862.955 87.5525 1020.94 79.6261C1126.9 74.3078 1217.69 11.5617 1321.99 0.924996C1408.15 -7.87071 1489.49 31.2753 1565.29 67.0718C1686.88 124.525 1787.11 146.208 1919.18 109.005" stroke="#2A2A2A" stroke-miterlimit="10"/>
<path d="M1 68.9894C177.882 19.9482 366.734 -2.8848 550.393 10.1298C703.669 20.9966 857.533 66.6371 1011.83 60.0147C1120.2 55.3612 1221.32 9.28601 1328.84 -0.174492C1419.33 -8.12643 1504.29 23.4256 1588.44 52.523C1701.46 91.6179 1801.05 106.167 1919.18 78.859" stroke="#2A2A2A" stroke-miterlimit="10"/>
<path d="M1 45.3382C175.299 11.5872 355.864 -1.73421 533.386 6.19215C687.966 13.0958 842.367 43.3694 997.382 39.2783C1116.05 36.1589 1231.83 4.53017 1350.25 -1.63194C1434.75 -6.02979 1516.44 13.4282 1598.21 32.3236C1707.11 57.4834 1808.06 69.194 1919.18 50.0428" stroke="#2A2A2A" stroke-miterlimit="10"/>
<path d="M1 21.6614C173.918 3.76314 348.601 -1.73418 522.414 2.17786C675.229 5.62967 827.968 20.8432 980.911 18.7977C1110.99 17.059 1240.4 0.797142 1370.43 -2.42454C1554.86 -7.00138 1734.19 41.5796 1919.18 22.9654" stroke="#2A2A2A" stroke-miterlimit="10"/>
<path d="M1 -2.01543C640.369 -5.54394 1279.81 1.84548 1919.18 -2.01543" stroke="#2A2A2A" stroke-miterlimit="10"/>
</g>
<defs>
<clipPath id="clip0_288_130">
<rect width="1920" height="1282" fill="white"/>
</clipPath>
</defs>
</svg>
